{"title":"Fringe.S04E19.HDTV.XviD-Junio2","uid":7203919,"size":290027928,"categoryP":"video","categoryS":"tv_shows","magnet":"?xt=urn:btih:e8a0547219c895638f1668ff2870cd9eeb807a6c&amp;dn=Fringe.S04E19.HDTV.XviD-Junio2&amp;tr=udp%3A%2F%2Ftracker.openbittorrent.com%3A80&amp;tr=udp%3A%2F%2Fopen.demonii.com%3A1337&amp;tr=udp%3A%2F%2Ftracker.coppersurfer.tk%3A6969&amp;tr=udp%3A%2F%2Fexodus.desync.com%3A6969","seeders":0,"leechers":0,"uploader":"junio_tk2","files":-1,"time":1335028476,"description":"Format                           : AVI\nFormat/Info                      : Audio Video Interleave\nFile size                        : 277 MiB\nDuration                         : 42mn 49s\nOverall bit rate                 : 903 Kbps\nWriting application              : MEncoder r34118-4.2.5\nWriting library                  : MPlayer\n\nVideo\nID                               : 0\nFormat                           : MPEG-4 Visual\nFormat profile                   : Simple@L3\nFormat settings, BVOP            : No\nFormat settings, QPel            : No\nFormat settings, GMC             : No warppoints\nFormat settings, Matrix          : Default (H.263)\nCodec ID                         : XVID\nCodec ID/Hint                    : XviD\nDuration                         : 42mn 49s\nBit rate                         : 768 Kbps\nWidth                            : 624 pixels\nHeight                           : 352 pixels\nDisplay aspect ratio             : 16:9\nFrame rate                       : 23.976 fps\nColor space                      : YUV\nChroma subsampling               : 4:2:0\nBit depth                        : 8 bits\nScan type                        : Progressive\nCompression mode                 : Lossy\nBits/(Pixel*Frame)               : 0.146\nStream size                      : 235 MiB (85%)\nWriting library                  : XviD 63\n\nAudio\nID                               : 1\nFormat                           : MPEG Audio\nFormat version                   : Version 1\nFormat profile                   : Layer 3\nMode                             : Joint stereo\nCodec ID                         : 55\nCodec ID/Hint                    : MP3\nDuration                         : 42mn 49s\nBit rate mode                    : Variable\nBit rate                         : 123 Kbps\nChannel(s)                       : 2 channels\nSampling rate                    : 44.1 KHz\nCompression mode                 : Lossy\nStream size                      : 37.7 MiB (14%)\nAlignment                        : Aligned on interleaves\nInterleave, duration             : 26 ms (0.63 video frame)\nInterleave, preload duration     : 536 ms\n\n","torrent":{"xt":"urn:btih:e8a0547219c895638f1668ff2870cd9eeb807a6c","amp;dn":"Fringe.S04E19.HDTV.XviD-Junio2","amp;tr":["udp%3A%2F%2Ftracker.openbittorrent.com%3A80","udp%3A%2F%2Fopen.demonii.com%3A1337","udp%3A%2F%2Ftracker.coppersurfer.tk%3A6969","udp%3A%2F%2Fexodus.desync.com%3A6969"],"infoHash":"e8a0547219c895638f1668ff2870cd9eeb807a6c","infoHashBuffer":{"type":"Buffer","data":[232,160,84,114,25,200,149,99,143,22,104,255,40,112,205,158,235,128,122,108]},"announce":[],"urlList":[]}}